<!DOCTYPE svg PUBLIC "-//W3C//DTD SVG 1.1//EN" "http://www.w3.org/Graphics/SVG/1.1/DTD/svg11.dtd">
<!-- Uploaded to: SVG Repo, www.svgrepo.com, Transformed by: SVG Repo Mixer Tools -->
<svg width="256px" height="256px" viewBox="-11.52 -11.52 47.04 47.04" fill="none" xmlns="http://www.w3.org/2000/svg" transform="rotate(0)matrix(1, 0, 0, 1, 0, 0)">
<g id="SVGRepo_bgCarrier" stroke-width="0" transform="translate(0.9599999999999991,0.9599999999999991), scale(0.92)">
<path transform="translate(-11.52, -11.52), scale(2.94)" fill="#000" d="M9.166.33a2.25 2.25 0 00-2.332 0l-5.25 3.182A2.25 2.25 0 00.5 5.436v5.128a2.25 2.25 0 001.084 1.924l5.25 3.182a2.25 2.25 0 002.332 0l5.25-3.182a2.25 2.25 0 001.084-1.924V5.436a2.25 2.25 0 00-1.084-1.924L9.166.33z" strokewidth="0"/>
</g>
<g id="SVGRepo_tracerCarrier" stroke-linecap="round" stroke-linejoin="round" stroke="#000000" stroke-width="0.624"/>
<g id="SVGRepo_iconCarrier"> <path d="M10.0464 14C8.54044 12.4882 8.67609 9.90087 10.3494 8.22108L15.197 3.35462C16.8703 1.67483 19.4476 1.53865 20.9536 3.05046C22.4596 4.56228 22.3239 7.14956 20.6506 8.82935L18.2268 11.2626" stroke="#ebebeb" stroke-width="2.4" stroke-linecap="round"/> <path d="M13.9536 10C15.4596 11.5118 15.3239 14.0991 13.6506 15.7789L11.2268 18.2121L8.80299 20.6454C7.12969 22.3252 4.55237 22.4613 3.0464 20.9495C1.54043 19.4377 1.67609 16.8504 3.34939 15.1706L5.77323 12.7373" stroke="#ebebeb" stroke-width="2.4" stroke-linecap="round"/> </g>
</svg>